<?xml version="1.0" encoding="UTF-8"?>
<!DOCTYPE svg PUBLIC "-//W3C//DTD SVG 1.1//EN" "http://www.w3.org/Graphics/SVG/1.1/DTD/svg11.dtd">
<!-- Creator: CorelDRAW -->
<svg xmlns="http://www.w3.org/2000/svg" xml:space="preserve" width="64px" height="64px" shape-rendering="geometricPrecision" text-rendering="geometricPrecision" image-rendering="optimizeQuality" fill-rule="evenodd" clip-rule="evenodd"
viewBox="0 0 640 640"
 xmlns:xlink="http://www.w3.org/1999/xlink">
 <g id="Layer_x0020_1">
  <metadata id="CorelCorpID_0Corel-Layer"/>
  <path fill="#263238" d="M140.647 0l430.86 0c9.47256,0 17.2207,7.75994 17.2207,17.2325l0 355.54 0 125.317c-0.755915,13.4293 -18.1065,13.7364 -36.8508,12.9332l-417.572 0c-25.9255,0 -47.1266,21.2129 -47.1266,47.1266l0 0c0,25.9255 21.2129,47.1266 47.1266,47.1266l417.572 0 0 -50.1384 36.8508 0 0 63.7449c0,11.6222 -9.49618,21.1184 -21.1184,21.1184l-431.521 0c-46.6541,0 -84.8278,-38.1737 -84.8278,-84.8278l0 -61.6189 0 -120.781 0 -283.374c0,-49.1699 40.217,-89.3987 89.3869,-89.3987zm16.6065 69.7804l14.9057 0c7.60639,0 13.8309,5.03156 13.8309,11.197l0 351.418c0,6.16543 -6.22449,11.197 -13.8309,11.197l-14.9057 0c-7.60639,0 -13.8309,-5.03156 -13.8309,-11.197l0 -351.418c0,-6.16543 6.22449,-11.197 13.8309,-11.197z"/>
 </g>
</svg>
