<?xml version="1.0" encoding="UTF-8"?>
<!DOCTYPE svg PUBLIC "-//W3C//DTD SVG 1.1//EN" "http://www.w3.org/Graphics/SVG/1.1/DTD/svg11.dtd">
<!-- Creator: CorelDRAW -->
<svg xmlns="http://www.w3.org/2000/svg" xml:space="preserve" width="64px" height="64px" shape-rendering="geometricPrecision" text-rendering="geometricPrecision" image-rendering="optimizeQuality" fill-rule="evenodd" clip-rule="evenodd"
viewBox="0 0 640 640"
 xmlns:xlink="http://www.w3.org/1999/xlink">
 <g id="Layer_x0020_1">
  <metadata id="CorelCorpID_0Corel-Layer"/>
  <path fill="#263238" fill-rule="nonzero" d="M234.227 122.352l-89.5759 0 -144.651 190.266 144.651 190.242 89.5759 0 -144.651 -190.242 144.651 -190.266zm171.557 0l89.5759 0 144.64 190.266 -144.64 190.242 -89.5759 0 144.651 -190.242 -144.651 -190.266zm-40.2997 -66.6386l31.0161 7.22844c4.87801,1.12206 7.93711,6.04732 6.80323,10.9135l-117.167 503.616c-1.14568,4.8662 -6.04732,7.92529 -10.9253,6.80323l-31.0161 -7.22844c-4.87801,-1.12206 -7.93711,-6.04732 -6.80323,-10.9135l117.167 -503.616c1.14568,-4.8662 6.05913,-7.92529 10.9253,-6.80323z"/>
 </g>
</svg>
