<?xml version="1.0" encoding="UTF-8"?>
<!DOCTYPE svg PUBLIC "-//W3C//DTD SVG 1.1//EN" "http://www.w3.org/Graphics/SVG/1.1/DTD/svg11.dtd">
<!-- Creator: CorelDRAW -->
<svg xmlns="http://www.w3.org/2000/svg" xml:space="preserve" width="64px" height="64px" shape-rendering="geometricPrecision" text-rendering="geometricPrecision" image-rendering="optimizeQuality" fill-rule="evenodd" clip-rule="evenodd"
viewBox="0 0 640 640"
 xmlns:xlink="http://www.w3.org/1999/xlink">
 <g id="Layer_x0020_1">
  <metadata id="CorelCorpID_0Corel-Layer"/>
  <path fill="#263238" d="M319.988 7.97254c-176.695,0 -319.988,143.269 -319.988,319.988 0,141.392 91.6783,261.298 218.826,303.63 16.0041,2.9646 21.8861,-6.95678 21.8861,-15.4136 0,-7.63002 -0.318902,-32.835 -0.448824,-59.5519 -89.0326,19.3585 -107.801,-37.7721 -107.801,-37.7721 -14.5514,-36.9926 -35.528,-46.8313 -35.528,-46.8313 -29.0319,-19.8782 2.20869,-19.4412 2.20869,-19.4412 32.1264,2.24412 49.04,32.9532 49.04,32.9532 28.5594,48.9219 74.8828,34.7603 93.1311,26.5988 2.88193,-20.6814 11.1497,-34.8075 20.3152,-42.8037 -71.0796,-8.06703 -145.797,-35.5162 -145.797,-158.14 0,-34.9256 12.5198,-63.485 32.965,-85.879 -3.33075,-8.07884 -14.2915,-40.6068 3.08272,-84.6743 0,0 26.8704,-8.61034 88.0286,32.7996 25.5121,-7.07489 52.8786,-10.6419 80.0561,-10.76 27.2011,0.118112 54.6148,3.67327 80.1624,10.76 61.0756,-41.3863 87.9223,-32.7996 87.9223,-32.7996 17.3979,44.0793 6.48433,76.6309 3.15358,84.6743 20.516,22.394 32.9295,50.9534 32.9295,85.879 0,122.907 -74.8828,149.931 -146.116,157.856 11.4805,9.92138 21.7326,29.398 21.7326,59.233 0,42.7919 -0.366146,77.2805 -0.366146,87.8042 0,8.51585 5.76385,18.4727 21.9924,15.3545 127.076,-42.3549 218.637,-162.274 218.637,-303.582 0,-176.695 -143.269,-319.988 -320,-319.988l-0.0236223 0.106301z"/>
 </g>
</svg>
