<?xml version="1.0" encoding="UTF-8"?>
<!DOCTYPE svg PUBLIC "-//W3C//DTD SVG 1.1//EN" "http://www.w3.org/Graphics/SVG/1.1/DTD/svg11.dtd">
<!-- Creator: CorelDRAW -->
<svg xmlns="http://www.w3.org/2000/svg" xml:space="preserve" width="64px" height="64px" style="shape-rendering:geometricPrecision; text-rendering:geometricPrecision; image-rendering:optimizeQuality; fill-rule:evenodd; clip-rule:evenodd"
viewBox="0 0 640 640"
 xmlns:xlink="http://www.w3.org/1999/xlink">
 <defs>
 </defs>
 <g id="Layer_x0020_1">
  <metadata id="CorelCorpID_0Corel-Layer"/>
  <path fill="#263238" d="M36.7564 105.97l566.487 0 0.0118112 0 0 0.0590558c10.1458,0.0118112 19.3349,4.15753 25.9728,10.8308 6.60244,6.6615 10.7127,15.8624 10.7127,25.9846l0.070867 0 0 0.0354335 -0.070867 0 0 375.701c0,8.49223 -6.88591,15.39 -15.39,15.39l0 0.0590558 -609.102 0c-8.53948,0 -15.4608,-6.92134 -15.4608,-15.449 0,-0.472447 0.0236223,-0.944894 0.070867,-1.40553l0 -374.296 -0.070867 0 0 -0.0118112 0.070867 0c0,-10.1458 4.11029,-19.3585 10.7245,-26.0082 6.62607,-6.67331 15.8033,-10.819 25.9373,-10.8308l0 -0.0590558 0.0354335 0zm45.6147 71.7056l392.213 0 0 57.1661 -392.213 0 0 -57.1661zm416.261 0l58.9968 0 0 57.1661 -58.9968 0 0 -57.1661zm-416.261 284.649l0 -32.4689c17.3742,-7.7245 70.5599,-22.0515 73.0639,-43.3234 0.566936,-4.79533 -10.7482,-23.457 -13.3466,-32.2327 -3.25988,-5.20873 -5.01975,-7.05127 -4.93707,-13.4765 0.0472447,-3.61422 0.106301,-7.16938 0.614181,-10.6419 0.673237,-4.441 0.531503,-4.57092 2.8583,-8.14971 2.40948,-3.70871 1.38191,-17.2679 1.38191,-22.3822 0,-50.9061 89.1979,-50.9179 89.1979,0 0,6.43709 -1.48821,18.2601 2.01971,23.3271 1.689,2.45672 1.39372,2.752 1.96065,5.76385 0.744104,3.93312 0.803159,7.97254 0.862215,12.0828 0.0826782,6.42528 -1.66537,8.26782 -4.92526,13.4765 -3.16539,9.21271 -15.1892,26.646 -14.1616,31.8665 3.82682,19.4176 53.1503,32.4689 68.6819,39.3784l0 36.78 -203.27 0zm234.605 -177.262l240.653 0 0 31.6657 -240.653 0 0 -31.6657zm5.57487 142.632l235.078 0 0 31.6657 -235.078 0 0 -31.6657zm101.8 -71.3158l133.277 0 0 31.6657 -133.277 0 0 -31.6657zm-101.8 0l74.5875 0 0 31.6657 -74.5875 0 0 -31.6657zm280.692 -219.511l-566.487 0 -0.0354335 0 0 -0.0590558c-1.54726,0 -3.01185,0.685048 -4.08666,1.77168 -1.11025,1.12206 -1.7953,2.63389 -1.7953,4.28745l0.0590558 0 0 0.0118112 -0.0590558 0 0 360.252 578.322 0 0 -360.252 -0.0590558 0 0 -0.0354335 0.0590558 0c0,-1.62994 -0.685048,-3.14177 -1.78349,-4.25202 -1.08663,-1.09844 -2.55121,-1.78349 -4.1221,-1.78349l0 0.0590558 -0.0118112 0z"/>
 </g>
</svg>
