<?xml version="1.0" encoding="UTF-8"?>
<!DOCTYPE svg PUBLIC "-//W3C//DTD SVG 1.1//EN" "http://www.w3.org/Graphics/SVG/1.1/DTD/svg11.dtd">
<!-- Creator: CorelDRAW -->
<svg xmlns="http://www.w3.org/2000/svg" xml:space="preserve" width="64px" height="64px" shape-rendering="geometricPrecision" text-rendering="geometricPrecision" image-rendering="optimizeQuality" fill-rule="evenodd" clip-rule="evenodd"
viewBox="0 0 640 640"
 xmlns:xlink="http://www.w3.org/1999/xlink">
 <g id="Layer_x0020_1">
  <metadata id="CorelCorpID_0Corel-Layer"/>
  <path fill="black" d="M237.747 508.483l168.404 0 0 31.3232 0 7.2993 0 18.9805 31.3232 68.3985 -13.4884 0 -51.7329 -51.0951 -23.7523 0 -18.9569 51.0951 -18.5435 0 -11.9057 -51.0951 -21.4963 0 -51.9101 51.0951 -19.264 0 31.3232 -68.3985 0 -18.9805 0 -7.2993 0 -31.3232zm-231.7 -52.5479l161.967 -240.18 0 270.488 -167.506 0c-1.53545,-11.1143 0.248035,-22.4648 5.53944,-30.3075zm297.665 -441.407c8.95287,-13.2876 24.6972,-11.6694 34.9847,3.57878 136.171,201.924 96.6626,233.554 96.6626,468.136l-228.463 0c0,-235.515 -39.8981,-268.976 96.8162,-471.714zm170.541 204.605l157.266 233.212c6.48433,9.60248 9.3072,22.4176 8.27963,33.8981l-165.545 0 0 -267.11z"/>
 </g>
</svg>
