<?xml version="1.0" encoding="UTF-8"?>
<!DOCTYPE svg PUBLIC "-//W3C//DTD SVG 1.1//EN" "http://www.w3.org/Graphics/SVG/1.1/DTD/svg11.dtd">
<!-- Creator: CorelDRAW -->
<svg xmlns="http://www.w3.org/2000/svg" xml:space="preserve" width="64px" height="64px" shape-rendering="geometricPrecision" text-rendering="geometricPrecision" image-rendering="optimizeQuality" fill-rule="evenodd" clip-rule="evenodd"
viewBox="0 0 640 640"
 xmlns:xlink="http://www.w3.org/1999/xlink">
 <g id="Layer_x0020_1">
  <metadata id="CorelCorpID_0Corel-Layer"/>
  <path fill="#263238" fill-rule="nonzero" d="M320 -0.0118112l0.0118112 0 0 0.0826782c88.3948,0.0118112 168.404,35.7997 226.255,93.6626 57.8629,57.8629 93.6508,137.848 93.6626,226.243l0.0826782 0 0 0.0236223 0 0.0118112 -0.0826782 0c-0.0118112,88.3948 -35.7997,168.404 -93.6626,226.255 -57.8629,57.8629 -137.848,93.6508 -226.243,93.6626l0 0.0826782 -0.0236223 0 -0.0118112 0 0 -0.0826782c-88.3948,-0.0118112 -168.404,-35.7997 -226.255,-93.6626 -57.8629,-57.8629 -93.6508,-137.848 -93.6626,-226.243l-0.0826782 0 0 -0.0236223 0 -0.0118112 0.0826782 0c0.0118112,-88.3948 35.7997,-168.392 93.6626,-226.255 57.8629,-57.8629 137.848,-93.6508 226.243,-93.6626l0 -0.0826782 0.0236223 0zm-173.896 404.509c-4.29927,-7.88986 -1.39372,-17.7758 6.50795,-22.0751 7.88986,-4.29927 17.7758,-1.39372 22.0751,6.50795 17.6813,32.398 45.473,55.5361 77.2214,69.2607 24.7916,10.7127 52.0046,15.7089 78.7451,14.9175 26.5279,-0.779537 52.477,-7.28749 75.0009,-19.5829 25.4413,-13.8781 46.5242,-35.2209 59.0204,-64.111 3.55516,-8.2442 13.1222,-12.0474 21.3782,-8.49223 8.2442,3.56697 12.0474,13.134 8.48042,21.3782 -15.5789,36.0477 -41.7643,62.611 -73.3119,79.8199 -27.083,14.7876 -58.111,22.6066 -89.6704,23.5397 -31.335,0.921271 -63.3079,-4.9725 -92.5287,-17.6105 -38.1146,-16.4648 -71.5403,-44.3746 -92.9185,-83.5522zm19.9963 -167.14c-5.68117,6.9804 -15.9333,8.03159 -22.9137,2.36223 -6.9804,-5.66936 -8.03159,-15.9333 -2.36223,-22.9019 2.6457,-3.24807 5.59849,-6.20086 8.78751,-8.81113 13.5474,-11.0907 33.5201,-18.4609 54.166,-19.5475 20.8703,-1.11025 42.8273,4.1221 60.2133,18.2601 4.0158,3.25988 7.70088,6.88591 10.9726,10.8781 5.70479,6.9804 4.67722,17.2679 -2.30318,22.9727 -6.96859,5.71661 -17.2561,4.68903 -22.9727,-2.29137 -2.0079,-2.45672 -4.09848,-4.5473 -6.24811,-6.29535 -10.5238,-8.5631 -24.4609,-11.7049 -37.9965,-10.9844 -13.7482,0.732292 -26.7051,5.35046 -35.15,12.2718 -1.71262,1.40553 -3.12996,2.77562 -4.19296,4.08666zm224.211 0c-5.68117,6.9804 -15.9333,8.03159 -22.9137,2.36223 -6.9804,-5.66936 -8.03159,-15.9333 -2.36223,-22.9019 2.6457,-3.24807 5.59849,-6.20086 8.78751,-8.81113 13.5474,-11.0907 33.5201,-18.4609 54.1778,-19.5475 20.8585,-1.11025 42.8155,4.1221 60.2015,18.2601 4.0158,3.25988 7.70088,6.88591 10.9726,10.8781 5.70479,6.9804 4.67722,17.2679 -2.30318,22.9727 -6.96859,5.71661 -17.2561,4.68903 -22.9727,-2.29137 -2.0079,-2.45672 -4.09848,-4.5473 -6.24811,-6.29535 -10.5238,-8.5631 -24.4609,-11.7049 -37.9965,-10.9844 -13.7482,0.732292 -26.7051,5.35046 -35.15,12.2718 -1.71262,1.40553 -3.12996,2.77562 -4.19296,4.08666zm-70.3001 -196.609l0 0.0826782 -0.0118112 0 -0.0236223 0 0 -0.0826782c-77.0088,0.0118112 -146.801,31.2996 -197.365,81.8632 -50.5636,50.5636 -81.8514,120.356 -81.8632,197.376l0.0826782 0 0 0.0118112 0 0.0236223 -0.0826782 0c0.0118112,77.0088 31.2996,146.801 81.8632,197.365 50.5636,50.5636 120.356,81.8514 197.376,81.8632l0 -0.0826782 0.0118112 0 0.0236223 0 0 0.0826782c77.0088,-0.0118112 146.801,-31.2996 197.365,-81.8632 50.5636,-50.5636 81.8514,-120.356 81.8632,-197.376l-0.0826782 0 0 -0.0118112 0 -0.0236223 0.0826782 0c-0.0118112,-77.0088 -31.2996,-146.801 -81.8514,-197.365 -50.5754,-50.5636 -120.368,-81.8514 -197.388,-81.8632z"/>
 </g>
</svg>
